<svg xmlns="http://www.w3.org/2000/svg" width="48" height="48" viewBox="0 0 48 48" fill="none">
  <defs>
    <radialGradient id="hitGlow" cx="50%" cy="50%" r="50%">
      <stop offset="0%" stop-color="#fbbf24" stop-opacity="0.95"/>
      <stop offset="30%" stop-color="#ef4444" stop-opacity="0.9"/>
      <stop offset="70%" stop-color="#f97316" stop-opacity="0.7"/>
      <stop offset="100%" stop-color="#ef4444" stop-opacity="0"/>
    </radialGradient>
  </defs>
  
  <!-- Outer glow -->
  <circle cx="24" cy="24" r="18" fill="url(#hitGlow)" opacity="0.5"/>
  
  <!-- Explosion burst (irregular star) -->
  <path d="
    M24 4
    L27 14 L34 6 L30 16 L42 12 L33 20 L46 22 L34 24
    L44 32 L32 28 L36 42 L27 30 L24 44
    L21 30 L12 42 L16 28 L4 32 L14 24
    L2 22 L15 20 L6 12 L18 16 L14 6 L21 14 Z
  " fill="#ef4444" opacity="0.85"/>
  
  <!-- Inner burst (brighter) -->
  <path d="
    M24 12
    L26 18 L30 13 L28 19 L36 16 L30 21 L38 23 L30 24
    L35 30 L28 27 L30 36 L26 28 L24 38
    L22 28 L18 36 L20 27 L13 30 L18 24
    L10 23 L18 21 L12 16 L20 19 L18 13 L22 18 Z
  " fill="#f97316" opacity="0.9"/>
  
  <!-- Center hot spot -->
  <circle cx="24" cy="24" r="5" fill="#fbbf24" opacity="0.95"/>
  <circle cx="24" cy="24" r="2.5" fill="#fef3c7" opacity="0.9"/>
  
  <!-- Debris particles -->
  <circle cx="10" cy="10" r="1.2" fill="#f97316" opacity="0.6"/>
  <circle cx="38" cy="14" r="1" fill="#ef4444" opacity="0.5"/>
  <circle cx="8" cy="30" r="0.8" fill="#f97316" opacity="0.5"/>
  <circle cx="40" cy="36" r="1.1" fill="#ef4444" opacity="0.4"/>
  <circle cx="14" cy="40" r="0.9" fill="#f97316" opacity="0.45"/>
  <circle cx="36" cy="8" r="0.7" fill="#fbbf24" opacity="0.5"/>
</svg>
