<svg xmlns="http://www.w3.org/2000/svg" width="48" height="48" viewBox="0 0 48 48" fill="none">
  <!-- Hull -->
  <path d="M5 21 C4 22.5 3.5 23.5 3.5 24 C3.5 24.5 4 25.5 5 27 L8 30 L10 31 L30 31 L38 28 L43 25 L44.5 24 L43 23 L38 20 L30 17 L10 17 L8 18 Z" fill="#6b7280" stroke="#4b5563" stroke-width="0.8" stroke-linejoin="round"/>
  
  <!-- Deck -->
  <path d="M9 19.5 L29 19.5 L36 21.5 L40 23.5 L40 24.5 L36 26.5 L29 28.5 L9 28.5 L7 26.5 L5.5 24 L7 21.5 Z" fill="#79818b"/>
  
  <!-- Cockpit / bridge -->
  <rect x="18" y="21" width="8" height="6" rx="1.5" fill="#9ca3af" stroke="#4b5563" stroke-width="0.4"/>
  <rect x="19.5" y="22" width="3.5" height="2.5" rx="0.5" fill="#bcc3cd"/>
  
  <!-- Windshield glare -->
  <line x1="20" y1="22.5" x2="22.5" y2="22.5" stroke="#d1d5db" stroke-width="0.4" opacity="0.6"/>
  
  <!-- Antenna -->
  <line x1="22" y1="21" x2="22" y2="18" stroke="#9ca3af" stroke-width="0.5"/>
  <circle cx="22" cy="17.5" r="0.6" fill="#06b6d4" opacity="0.9"/>
  
  <!-- Engine stern detail -->
  <rect x="7" y="22.5" width="4" height="3" rx="0.5" fill="#5e6672" stroke="#4b5563" stroke-width="0.3"/>
  
  <!-- Bow rail -->
  <path d="M30 20 L37 22.5" fill="none" stroke="#9ca3af" stroke-width="0.3" opacity="0.4"/>
  <path d="M30 28 L37 25.5" fill="none" stroke="#9ca3af" stroke-width="0.3" opacity="0.4"/>
  
  <!-- Hull highlight -->
  <path d="M10 17 L30 17 L38 20" fill="none" stroke="#8b939d" stroke-width="0.3" opacity="0.45"/>
</svg>
