<svg xmlns="http://www.w3.org/2000/svg" width="96" height="48" viewBox="0 0 96 48" fill="none">
  <!-- Hull -->
  <path d="M6 20 C4 22 3 23.5 3 24 C3 25 4 26.5 6 28.5 L10 32 L14 34 L70 34 L80 31 L88 27 L93 24 L88 21 L80 17 L70 14 L14 14 L10 16 Z" fill="#6b7280" stroke="#4b5563" stroke-width="1" stroke-linejoin="round"/>
  
  <!-- Deck -->
  <path d="M12 17 L68 17 L78 19.5 L84 22.5 L84 25.5 L78 28.5 L68 31 L12 31 L9 28 L7 24 L9 20 Z" fill="#79818b"/>
  
  <!-- Forward turret -->
  <circle cx="72" cy="24" r="4.5" fill="#8b939d" stroke="#4b5563" stroke-width="0.5"/>
  <circle cx="72" cy="24" r="2" fill="#9ca3af"/>
  <line x1="72" y1="24" x2="82" y2="24" stroke="#9ca3af" stroke-width="1.2" stroke-linecap="round"/>
  
  <!-- Rear turret -->
  <circle cx="28" cy="24" r="3.5" fill="#8b939d" stroke="#4b5563" stroke-width="0.5"/>
  <circle cx="28" cy="24" r="1.5" fill="#9ca3af"/>
  <line x1="28" y1="24" x2="20" y2="24" stroke="#9ca3af" stroke-width="1" stroke-linecap="round"/>
  
  <!-- Superstructure / bridge -->
  <rect x="44" y="18" width="16" height="12" rx="2" fill="#9ca3af" stroke="#4b5563" stroke-width="0.5"/>
  <rect x="46" y="19.5" width="5" height="4" rx="0.5" fill="#bcc3cd"/>
  <!-- Mast -->
  <line x1="52" y1="18" x2="52" y2="13" stroke="#9ca3af" stroke-width="0.7"/>
  <line x1="49" y1="14.5" x2="55" y2="14.5" stroke="#9ca3af" stroke-width="0.5"/>
  <circle cx="52" cy="12.5" r="0.8" fill="#06b6d4" opacity="0.9"/>
  
  <!-- Deck details -->
  <rect x="36" y="22" width="4" height="4" rx="0.5" fill="#5e6672" opacity="0.6"/>
  
  <!-- Wake rails -->
  <line x1="64" y1="19" x2="82" y2="22" stroke="#9ca3af" stroke-width="0.3" opacity="0.3"/>
  <line x1="64" y1="29" x2="82" y2="26" stroke="#9ca3af" stroke-width="0.3" opacity="0.3"/>
  
  <!-- Hull highlight -->
  <path d="M14 14 L70 14 L80 17" fill="none" stroke="#8b939d" stroke-width="0.4" opacity="0.45"/>
</svg>
